<?xml version="1.0" encoding="UTF-8" standalone="no"?>
<svg
   xmlns:dc="http://purl.org/dc/elements/1.1/"
   xmlns:cc="http://creativecommons.org/ns#"
   xmlns:rdf="http://www.w3.org/1999/02/22-rdf-syntax-ns#"
   xmlns:svg="http://www.w3.org/2000/svg"
   xmlns="http://www.w3.org/2000/svg"
   xmlns:sodipodi="http://sodipodi.sourceforge.net/DTD/sodipodi-0.dtd"
   xmlns:inkscape="http://www.inkscape.org/namespaces/inkscape"
   width="256px"
   height="256px"
   viewBox="0 0 256 256"
   version="1.1"
   preserveAspectRatio="xMidYMid"
   id="svg8"
   sodipodi:docname="facebook.svg"
   inkscape:version="1.0.1 (3bc2e813f5, 2020-09-07)">
  <metadata
     id="metadata14">
    <rdf:RDF>
      <cc:Work
         rdf:about="">
        <dc:format>image/svg+xml</dc:format>
        <dc:type
           rdf:resource="http://purl.org/dc/dcmitype/StillImage" />
      </cc:Work>
    </rdf:RDF>
  </metadata>
  <defs
     id="defs12" />
  <sodipodi:namedview
     pagecolor="#ffffff"
     bordercolor="#666666"
     borderopacity="1"
     objecttolerance="10"
     gridtolerance="10"
     guidetolerance="10"
     inkscape:pageopacity="0"
     inkscape:pageshadow="2"
     inkscape:window-width="1920"
     inkscape:window-height="1017"
     id="namedview10"
     showgrid="false"
     inkscape:zoom="2.0495048"
     inkscape:cx="63.547923"
     inkscape:cy="143.00547"
     inkscape:window-x="1912"
     inkscape:window-y="-8"
     inkscape:window-maximized="1"
     inkscape:current-layer="svg8" />
  <path
     d="m 241.871,256.001 c 7.802,0 14.129,-6.326 14.129,-14.129 V 14.129 C 256,6.325 249.673,0 241.871,0 H 14.129 C 6.324,0 0,6.325 0,14.129 v 227.743 c 0,7.803 6.324,14.129 14.129,14.129 h 227.742"
     fill="#395185"
     id="path2"
     style="fill:#1a1a1a" />
  <path
     d="m 176.635,256.001 v -99.137 h 33.277 l 4.982,-38.635 H 176.635 V 93.561 c 0,-11.186 3.107,-18.809 19.148,-18.809 l 20.459,-0.009 V 40.188 c -3.54,-0.471 -15.684,-1.523 -29.812,-1.523 -29.498,0 -49.692,18.005 -49.692,51.071 v 28.493 h -33.362 v 38.635 h 33.362 v 99.137 h 39.897"
     fill="#ffffff"
     id="path4" />
</svg>
